<svg width="480" height="507" viewBox="0 0 480 507" fill="none" xmlns="http://www.w3.org/2000/svg">
<path d="M391.111 336.156L444.444 388.778L207.644 501.845C207.644 501.845 176.356 516.067 161.422 493.311C103.111 402.289 391.111 336.156 391.111 336.156Z" fill="#962C2C"/>
<path d="M201.955 435.711C201.955 435.711 156.444 451.356 164.977 481.933C173.511 513.222 209.777 494.022 209.777 494.022L434.488 389.489C434.488 389.489 421.688 356.067 444.444 334.022L201.955 435.711Z" fill="#D9E3E8"/>
<path d="M239.645 122.111L455.111 331.889L200.533 431.445L36.978 176.867L239.645 122.111Z" fill="#ED4C5C"/>
<path d="M246.044 169.756L287.289 213.845L132.978 269.311L96.7112 213.134L246.044 169.756Z" fill="white"/>
<path d="M433.778 356.778L283.733 417.933L431.644 350.378L433.778 356.778Z" fill="#94989B"/>
<path d="M431.644 375.267L271.644 441.4L428.8 368.156L431.644 375.267Z" fill="#94989B"/>
<path d="M433.067 385.222L228.978 473.4L430.222 378.822L433.067 385.222Z" fill="#94989B"/>
<path d="M161.422 493.311C136.533 441.4 200.533 432.156 200.533 432.156L36.9778 176.867C36.9778 176.867 0 176.156 0 214.556C0 230.2 7.11111 242.289 7.11111 242.289L161.422 493.311" fill="#C94747"/>
<path d="M416 214.378L469.333 267L232.534 380.067C232.534 380.067 201.245 394.289 186.311 371.534C128 280.511 416 214.378 416 214.378Z" fill="#962C2C"/>
<path d="M226.844 313.934C226.844 313.934 181.333 329.578 189.867 360.156C198.4 391.445 234.667 372.245 234.667 372.245L459.378 267.711C459.378 267.711 446.578 234.289 469.333 212.245L226.844 313.934Z" fill="#D9E3E8"/>
<path d="M264.534 0.33374L480 210.111L225.423 309.667L61.8672 55.0893L264.534 0.33374Z" fill="#FFCE31"/>
<path d="M270.934 47.9781L312.178 92.067L157.867 147.534L121.6 91.3559L270.934 47.9781Z" fill="white"/>
<path d="M458.667 235L308.623 296.156L456.534 228.6L458.667 235Z" fill="#94989B"/>
<path d="M456.534 253.489L296.534 319.622L453.689 246.378L456.534 253.489Z" fill="#94989B"/>
<path d="M457.956 263.445L253.867 352.334L455.111 257.045L457.956 263.445Z" fill="#94989B"/>
<path d="M186.311 371.534C161.422 319.622 225.422 310.378 225.422 310.378L61.8669 55.0893C61.8669 55.0893 24.8892 54.3782 24.8892 92.7782C24.8892 108.423 32.0003 120.511 32.0003 120.511L186.311 371.534" fill="#FF8736"/>
</svg>
